<?xml version="1.0" encoding="iso-8859-1"?>
<!-- Uploaded to: SVG Repo, www.svgrepo.com, Generator: SVG Repo Mixer Tools -->
<!DOCTYPE svg PUBLIC "-//W3C//DTD SVG 1.1//EN" "http://www.w3.org/Graphics/SVG/1.1/DTD/svg11.dtd">
<svg fill="#000000" version="1.1" id="Capa_1" xmlns="http://www.w3.org/2000/svg" xmlns:xlink="http://www.w3.org/1999/xlink" 
	 width="800px" height="800px" viewBox="0 0 57.486 57.486"
	 xml:space="preserve">
<g>
	<g>
		<path d="M7.877,25.815c0.318,0,0.642-0.073,0.945-0.229l5.59-2.851c0.513-0.262,1.344-0.262,1.855,0l5.59,2.851
			c0.303,0.154,0.627,0.229,0.945,0.229c0.76,0,1.489-0.415,1.857-1.137c0.523-1.025,0.115-2.279-0.908-2.802l-2.899-1.479
			c-0.513-0.261-0.513-0.686,0-0.947l2.9-1.479c1.023-0.522,1.431-1.777,0.909-2.802c-0.523-1.024-1.776-1.431-2.803-0.908
			l-5.591,2.852c-0.512,0.262-1.343,0.262-1.855,0l-5.591-2.852c-1.025-0.523-2.28-0.116-2.803,0.908
			c-0.522,1.025-0.115,2.279,0.909,2.802l2.9,1.479c0.513,0.261,0.513,0.686,0,0.947l-2.899,1.479
			c-1.023,0.523-1.431,1.777-0.909,2.802C6.388,25.401,7.118,25.815,7.877,25.815z"/>
		<path d="M46.283,14.26l-5.591,2.853c-0.513,0.261-1.344,0.261-1.856,0l-5.59-2.853c-1.026-0.522-2.279-0.115-2.802,0.909
			c-0.523,1.025-0.116,2.279,0.908,2.802l2.9,1.479c0.513,0.261,0.513,0.686,0,0.947l-2.899,1.479
			c-1.024,0.523-1.432,1.777-0.908,2.802c0.369,0.721,1.099,1.137,1.857,1.137c0.318,0,0.642-0.073,0.944-0.229l5.589-2.851
			c0.513-0.262,1.344-0.262,1.856,0l5.59,2.851c0.304,0.154,0.627,0.229,0.945,0.229c0.759,0,1.489-0.415,1.857-1.137
			c0.523-1.025,0.115-2.279-0.908-2.802l-2.899-1.479c-0.513-0.261-0.513-0.686,0-0.947l2.9-1.479
			c1.023-0.522,1.432-1.777,0.908-2.802C48.564,14.145,47.308,13.737,46.283,14.26z"/>
		<path d="M43.16,25.024l-2.461-1.255c-0.512-0.261-1.344-0.261-1.855,0l-5.117,2.609c-0.438,0.224-0.93,0.342-1.418,0.342
			c-1.181,0-2.248-0.653-2.785-1.704c-0.783-1.537-0.172-3.421,1.362-4.205l1.081-0.551c0.513-0.261,0.513-0.686,0-0.947
			l-1.081-0.552c-1.535-0.783-2.146-2.668-1.363-4.203c0.537-1.052,1.604-1.706,2.785-1.706c0.489,0,0.979,0.118,1.419,0.342
			l2.127,1.085c0.513,0.262,0.665,0.087,0.342-0.388l-3.079-4.528c-3.298-4.847-8.455-4.726-11.521,0.273l-2.749,4.483
			c-0.301,0.491-0.129,0.676,0.384,0.415l2.626-1.34c0.438-0.224,0.929-0.341,1.418-0.341c1.182,0,2.249,0.653,2.785,1.705
			c0.783,1.536,0.172,3.42-1.362,4.203l-1.083,0.552c-0.513,0.262-0.513,0.686,0,0.947l1.08,0.551
			c1.535,0.783,2.146,2.669,1.362,4.204c-0.537,1.052-1.604,1.705-2.785,1.705c-0.489,0-0.98-0.118-1.418-0.342l-5.117-2.609
			c-0.513-0.262-1.344-0.262-1.855,0l-1.915,0.975c-0.512,0.262-1.172,0.872-1.473,1.362l-6.006,9.796l-4.123,6.724
			c-3.064,4.998-0.796,9.051,5.067,9.051h44.843c5.861,0,7.942-3.931,4.645-8.779l-11.244-16.54
			C44.351,25.884,43.673,25.286,43.16,25.024z M39.763,42.461H17.028c-1.15,0-2.083-0.933-2.083-2.083
			c0-1.149,0.933-2.083,2.083-2.083h22.735c1.149,0,2.084,0.934,2.084,2.083C41.847,41.53,40.913,42.461,39.763,42.461z"/>
	</g>
</g>
</svg>